<svg width="640" height="720" viewBox="0 0 640 720" xmlns="http://www.w3.org/2000/svg">
  <defs>
    <radialGradient id="bg" cx="50%" cy="42%" r="65%">
      <stop offset="0%" stop-color="#141a3a"/>
      <stop offset="100%" stop-color="#0a0e22"/>
    </radialGradient>
    <radialGradient id="haze" cx="50%" cy="34.0%" r="45%">
      <stop offset="0%" stop-color="#7730bb" stop-opacity="0.28"/>
      <stop offset="100%" stop-color="#0a0e22" stop-opacity="0"/>
    </radialGradient>
    <radialGradient id="coreBloom" cx="50%" cy="50%" r="50%">
      <stop offset="0%" stop-color="#c88cff" stop-opacity="0.42"/>
      <stop offset="45%" stop-color="#8c50ff" stop-opacity="0.16"/>
      <stop offset="100%" stop-color="#5020c8" stop-opacity="0"/>
    </radialGradient>
    <radialGradient id="core" cx="50%" cy="50%" r="50%">
      <stop offset="0%" stop-color="#f2deff" stop-opacity="0.95"/>
      <stop offset="55%" stop-color="#c26bff" stop-opacity="0.6"/>
      <stop offset="100%" stop-color="#8c46ff" stop-opacity="0.08"/>
    </radialGradient>
    <filter id="rimGlow" x="-60%" y="-60%" width="220%" height="220%">
      <feGaussianBlur stdDeviation="9" result="blur"/>
      <feMerge>
        <feMergeNode in="blur"/>
        <feMergeNode in="SourceGraphic"/>
      </feMerge>
    </filter>
    <filter id="outerBloom" x="-80%" y="-80%" width="260%" height="260%">
      <feGaussianBlur stdDeviation="26"/>
    </filter>
    <filter id="softGlow" x="-100%" y="-100%" width="300%" height="300%">
      <feGaussianBlur stdDeviation="5"/>
    </filter>
  </defs>

  <rect width="640" height="720" fill="url(#bg)"/>
  <rect width="640" height="720" fill="url(#haze)"/>

  <g filter="url(#rimGlow)">
    <path d="M 274.72,394.80 C 287.70,462.62 305.61,523.29 308.03,573.26 C 306.85,523.29 295.50,462.62 290.32,394.80 Z" fill="#05070d" stroke="#7730bb" stroke-width="0.6" stroke-opacity="0.35"/>
    <path d="M 302.94,394.80 C 309.09,473.41 315.99,543.74 317.06,601.66 C 317.24,543.74 316.89,473.41 318.54,394.80 Z" fill="#05070d" stroke="#7730bb" stroke-width="0.6" stroke-opacity="0.35"/>
    <path d="M 338.14,394.80 C 335.75,466.47 328.88,530.59 328.26,583.40 C 330.13,530.59 343.55,466.47 353.74,394.80 Z" fill="#05070d" stroke="#7730bb" stroke-width="0.6" stroke-opacity="0.35"/>
  </g>

  <path d="M 382.40,400.00 C 382.96,398.98 384.66,395.94 385.79,393.91 C 386.91,391.88 388.04,389.84 389.17,387.81 C 390.30,385.78 391.47,383.75 392.56,381.72 C 393.65,379.69 394.86,377.66 395.71,375.63 C 396.56,373.59 397.00,371.56 397.63,369.53 C 398.26,367.50 398.90,365.47 399.51,363.44 C 400.11,361.41 400.72,359.38 401.29,357.34 C 401.86,355.31 402.42,353.28 402.94,351.25 C 403.46,349.22 403.96,347.19 404.43,345.16 C 404.89,343.13 405.32,341.09 405.71,339.06 C 406.10,337.03 406.46,335.00 406.77,332.97 C 407.08,330.94 407.36,328.91 407.58,326.88 C 407.80,324.84 407.99,322.81 408.12,320.78 C 408.25,318.75 408.61,316.72 408.38,314.69 C 408.14,312.66 407.45,310.63 406.69,308.59 C 405.94,306.56 404.80,304.53 403.85,302.50 C 402.90,300.47 401.95,298.44 401.01,296.41 C 400.06,294.38 399.11,292.34 398.16,290.31 C 397.21,288.28 396.27,286.25 395.32,284.22 C 394.37,282.19 393.42,280.16 392.48,278.13 C 391.53,276.09 390.58,274.06 389.63,272.03 C 388.68,270.00 387.74,267.97 386.79,265.94 C 385.84,263.91 384.89,261.88 383.94,259.84 C 383.00,257.81 382.05,255.78 381.10,253.75 C 380.15,251.72 379.20,249.69 378.26,247.66 C 377.31,245.63 376.36,243.59 375.41,241.56 C 374.46,239.53 373.43,237.50 372.57,235.47 C 371.70,233.44 371.78,231.41 370.23,229.38 C 368.67,227.34 366.33,225.31 363.24,223.28 C 360.14,221.25 356.08,219.22 351.66,217.19 C 347.24,215.16 341.99,213.13 336.71,211.09 C 331.44,209.06 322.79,206.02 320.00,205.00 C 317.21,206.02 308.56,209.06 303.29,211.09 C 298.01,213.13 292.76,215.16 288.34,217.19 C 283.92,219.22 279.86,221.25 276.76,223.28 C 273.67,225.31 271.33,227.34 269.77,229.38 C 268.22,231.41 268.30,233.44 267.43,235.47 C 266.57,237.50 265.54,239.53 264.59,241.56 C 263.64,243.59 262.69,245.63 261.74,247.66 C 260.80,249.69 259.85,251.72 258.90,253.75 C 257.95,255.78 257.00,257.81 256.06,259.84 C 255.11,261.88 254.16,263.91 253.21,265.94 C 252.26,267.97 251.32,270.00 250.37,272.03 C 249.42,274.06 248.47,276.09 247.52,278.13 C 246.58,280.16 245.63,282.19 244.68,284.22 C 243.73,286.25 242.79,288.28 241.84,290.31 C 240.89,292.34 239.94,294.38 238.99,296.41 C 238.05,298.44 237.10,300.47 236.15,302.50 C 235.20,304.53 234.06,306.56 233.31,308.59 C 232.55,310.63 231.86,312.66 231.62,314.69 C 231.39,316.72 231.75,318.75 231.88,320.78 C 232.01,322.81 232.20,324.84 232.42,326.88 C 232.64,328.91 232.92,330.94 233.23,332.97 C 233.54,335.00 233.90,337.03 234.29,339.06 C 234.68,341.09 235.11,343.13 235.57,345.16 C 236.04,347.19 236.54,349.22 237.06,351.25 C 237.58,353.28 238.14,355.31 238.71,357.34 C 239.28,359.38 239.89,361.41 240.49,363.44 C 241.10,365.47 241.74,367.50 242.37,369.53 C 243.00,371.56 243.44,373.59 244.29,375.63 C 245.14,377.66 246.35,379.69 247.44,381.72 C 248.53,383.75 249.70,385.78 250.83,387.81 C 251.96,389.84 253.09,391.88 254.21,393.91 C 255.34,395.94 257.04,398.98 257.60,400.00 Q 266.51,403.09 275.43,400.00 Q 284.34,403.62 293.26,400.00 Q 302.17,404.05 311.09,400.00 Q 320.00,404.29 328.91,400.00 Q 337.83,404.29 346.74,400.00 Q 355.66,404.05 364.57,400.00 Q 373.49,403.62 382.40,400.00 Z" fill="#1a0050" opacity="0.45" filter="url(#outerBloom)"/>
  <path d="M 382.40,400.00 C 382.96,398.98 384.66,395.94 385.79,393.91 C 386.91,391.88 388.04,389.84 389.17,387.81 C 390.30,385.78 391.47,383.75 392.56,381.72 C 393.65,379.69 394.86,377.66 395.71,375.63 C 396.56,373.59 397.00,371.56 397.63,369.53 C 398.26,367.50 398.90,365.47 399.51,363.44 C 400.11,361.41 400.72,359.38 401.29,357.34 C 401.86,355.31 402.42,353.28 402.94,351.25 C 403.46,349.22 403.96,347.19 404.43,345.16 C 404.89,343.13 405.32,341.09 405.71,339.06 C 406.10,337.03 406.46,335.00 406.77,332.97 C 407.08,330.94 407.36,328.91 407.58,326.88 C 407.80,324.84 407.99,322.81 408.12,320.78 C 408.25,318.75 408.61,316.72 408.38,314.69 C 408.14,312.66 407.45,310.63 406.69,308.59 C 405.94,306.56 404.80,304.53 403.85,302.50 C 402.90,300.47 401.95,298.44 401.01,296.41 C 400.06,294.38 399.11,292.34 398.16,290.31 C 397.21,288.28 396.27,286.25 395.32,284.22 C 394.37,282.19 393.42,280.16 392.48,278.13 C 391.53,276.09 390.58,274.06 389.63,272.03 C 388.68,270.00 387.74,267.97 386.79,265.94 C 385.84,263.91 384.89,261.88 383.94,259.84 C 383.00,257.81 382.05,255.78 381.10,253.75 C 380.15,251.72 379.20,249.69 378.26,247.66 C 377.31,245.63 376.36,243.59 375.41,241.56 C 374.46,239.53 373.43,237.50 372.57,235.47 C 371.70,233.44 371.78,231.41 370.23,229.38 C 368.67,227.34 366.33,225.31 363.24,223.28 C 360.14,221.25 356.08,219.22 351.66,217.19 C 347.24,215.16 341.99,213.13 336.71,211.09 C 331.44,209.06 322.79,206.02 320.00,205.00 C 317.21,206.02 308.56,209.06 303.29,211.09 C 298.01,213.13 292.76,215.16 288.34,217.19 C 283.92,219.22 279.86,221.25 276.76,223.28 C 273.67,225.31 271.33,227.34 269.77,229.38 C 268.22,231.41 268.30,233.44 267.43,235.47 C 266.57,237.50 265.54,239.53 264.59,241.56 C 263.64,243.59 262.69,245.63 261.74,247.66 C 260.80,249.69 259.85,251.72 258.90,253.75 C 257.95,255.78 257.00,257.81 256.06,259.84 C 255.11,261.88 254.16,263.91 253.21,265.94 C 252.26,267.97 251.32,270.00 250.37,272.03 C 249.42,274.06 248.47,276.09 247.52,278.13 C 246.58,280.16 245.63,282.19 244.68,284.22 C 243.73,286.25 242.79,288.28 241.84,290.31 C 240.89,292.34 239.94,294.38 238.99,296.41 C 238.05,298.44 237.10,300.47 236.15,302.50 C 235.20,304.53 234.06,306.56 233.31,308.59 C 232.55,310.63 231.86,312.66 231.62,314.69 C 231.39,316.72 231.75,318.75 231.88,320.78 C 232.01,322.81 232.20,324.84 232.42,326.88 C 232.64,328.91 232.92,330.94 233.23,332.97 C 233.54,335.00 233.90,337.03 234.29,339.06 C 234.68,341.09 235.11,343.13 235.57,345.16 C 236.04,347.19 236.54,349.22 237.06,351.25 C 237.58,353.28 238.14,355.31 238.71,357.34 C 239.28,359.38 239.89,361.41 240.49,363.44 C 241.10,365.47 241.74,367.50 242.37,369.53 C 243.00,371.56 243.44,373.59 244.29,375.63 C 245.14,377.66 246.35,379.69 247.44,381.72 C 248.53,383.75 249.70,385.78 250.83,387.81 C 251.96,389.84 253.09,391.88 254.21,393.91 C 255.34,395.94 257.04,398.98 257.60,400.00 Q 266.51,403.09 275.43,400.00 Q 284.34,403.62 293.26,400.00 Q 302.17,404.05 311.09,400.00 Q 320.00,404.29 328.91,400.00 Q 337.83,404.29 346.74,400.00 Q 355.66,404.05 364.57,400.00 Q 373.49,403.62 382.40,400.00 Z" fill="#05070d" stroke="#b069ff" stroke-width="2.4" stroke-opacity="0.6" filter="url(#rimGlow)"/>

  <circle cx="358.0" cy="279.0" r="2.6" fill="#cc99ff" opacity="0.75" filter="url(#softGlow)"/>
  <circle cx="290.0" cy="305.0" r="2.6" fill="#cc99ff" opacity="0.75" filter="url(#softGlow)"/>
  <circle cx="330.0" cy="255.0" r="2.6" fill="#cc99ff" opacity="0.75" filter="url(#softGlow)"/>

  <g filter="url(#rimGlow)">
    <path d="M 353.80,394.80 C 347.63,464.16 334.68,526.21 333.30,577.32 C 335.92,526.21 355.43,464.16 369.40,394.80 Z" fill="#05070d" stroke="#9933cc" stroke-width="0.9" stroke-opacity="0.45"/>
    <path d="M 338.14,394.80 C 335.75,475.72 328.88,548.12 328.26,607.74 C 330.13,548.12 343.55,475.72 353.74,394.80 Z" fill="#05070d" stroke="#9933cc" stroke-width="0.9" stroke-opacity="0.45"/>
    <path d="M 302.94,394.80 C 309.09,460.30 315.99,518.91 317.06,567.18 C 317.24,518.91 316.89,460.30 318.54,394.80 Z" fill="#05070d" stroke="#9933cc" stroke-width="0.9" stroke-opacity="0.45"/>
    <path d="M 274.72,394.80 C 287.70,479.57 305.61,555.42 308.03,617.88 C 306.85,555.42 295.50,479.57 290.32,394.80 Z" fill="#05070d" stroke="#9933cc" stroke-width="0.9" stroke-opacity="0.45"/>
  </g>

  <circle cx="320" cy="337.59999999999997" r="83.2" fill="url(#coreBloom)"/>
  <circle cx="320" cy="337.59999999999997" r="26.0" fill="url(#core)" filter="url(#softGlow)"/>
</svg>